<?xml version="1.0" encoding="iso-8859-1"?>
<!-- Generator: Adobe Illustrator 19.0.0, SVG Export Plug-In . SVG Version: 6.00 Build 0)  -->
<svg version="1.1" id="Layer_1" xmlns="http://www.w3.org/2000/svg" xmlns:xlink="http://www.w3.org/1999/xlink" x="0px" y="0px"
	 viewBox="0 0 512 512" style="enable-background:new 0 0 512 512;" xml:space="preserve">
<g id="XMLID_7482_">
	<g id="XMLID_7481_">
		<rect id="XMLID_7969_" x="65.539" y="196.039" style="fill:#FFDAA7;" width="390.357" height="207.906"/>
		<path id="XMLID_7967_" style="fill:#FFC988;" d="M455.896,196.039v44.657c-2.815,0.526-5.707,0.8-8.675,0.8H105.551v162.45H65.539
			V196.039H455.896z"/>
		<rect id="XMLID_7999_" x="65.539" y="331.609" style="fill:#B75B16;" width="390.357" height="27.603"/>
		<rect id="XMLID_7995_" x="65.539" y="331.609" style="fill:#9B470D;" width="40.013" height="27.603"/>
		<rect id="XMLID_7996_" x="65.539" y="262.493" style="fill:#FFA6B7;" width="390.357" height="27.603"/>
		<rect id="XMLID_7992_" x="65.539" y="262.493" style="fill:#FC819C;" width="40.013" height="27.603"/>
		<path id="XMLID_7494_" style="fill:#B75B16;" d="M475.053,193.947c0,15.367-12.465,27.832-27.833,27.832H99.582
			c-7.591,0-13.747,6.156-13.747,13.757v168.408H30.192v-188.88c0-18.478,10.165-34.591,25.204-43.036
			c7.153-4.02,15.4-6.309,24.185-6.298l367.662,0.373c1.753,0,3.472,0.164,5.137,0.482
			C465.294,169.006,475.053,180.332,475.053,193.947z"/>
		<path id="XMLID_7491_" style="fill:#9B470D;" d="M452.38,166.586c-3.1,8.62-8.193,16.112-14.94,21.239
			c-15.368,11.687-38.315,13.429-50.627,13.429c-19.979,0-39.213-4.338-52.762-11.906c-6.616-3.702-11.972-8.872-15.871-15.05
			c-2.968,5.356-6.824,10.012-11.457,13.528c-15.368,11.687-38.315,13.429-50.627,13.429c-19.99,0-39.213-4.338-52.762-11.906
			c-6.616-3.702-11.972-8.872-15.882-15.05c-2.968,5.356-6.813,10.012-11.457,13.528c-15.368,11.687-38.304,13.429-50.616,13.429
			c-19.99,0-39.224-4.338-52.762-11.906c-7.405-4.14-13.243-10.132-17.219-17.317c7.153-4.02,15.4-6.309,24.185-6.298l367.662,0.373
			C448.995,166.103,450.715,166.268,452.38,166.586z"/>
		<g id="XMLID_6637_">
			<path id="XMLID_6631_" style="fill:#F2F2F2;" d="M135.688,84.278c-28.379,13.683-21.861,24.498-44.589,30.766
				c-22.728,6.268-31.308,44.547-8.869,57.086c22.439,12.54,65.338,12.54,81.837,0c16.499-12.54,15.179-54.115-13.86-57.086
				C121.169,112.072,155.073,74.932,135.688,84.278z"/>
			<path id="XMLID_7206_" style="fill:#D8D7DA;" d="M164.065,172.13c-16.496,12.542-59.4,12.542-81.833,0
				c-3.067-1.72-5.564-3.91-7.503-6.451c23.429,9.267,60.134,8.215,75.096-3.166c11.808-8.982,14.491-32.849,4.392-46.771
				C179.335,121.964,179.762,160.191,164.065,172.13z"/>
		</g>
		<g id="XMLID_6640_">
			<path id="XMLID_6661_" style="fill:#F2F2F2;" d="M266.408,84.278c-28.379,13.683-21.861,24.498-44.589,30.766
				c-22.728,6.268-31.308,44.547-8.869,57.086c22.439,12.54,65.338,12.54,81.837,0c16.499-12.54,15.179-54.115-13.86-57.086
				C251.889,112.072,285.793,74.932,266.408,84.278z"/>
			<path id="XMLID_7200_" style="fill:#D8D7DA;" d="M294.783,172.13c-16.496,12.542-59.389,12.542-81.833,0
				c-3.067-1.72-5.564-3.91-7.503-6.451c23.44,9.267,60.134,8.215,75.096-3.166c11.819-8.982,14.491-32.849,4.392-46.771
				C310.052,121.964,310.491,160.191,294.783,172.13z"/>
		</g>
		<g id="XMLID_6663_">
			<path id="XMLID_6667_" style="fill:#F2F2F2;" d="M397.128,84.278c-28.379,13.683-21.861,24.498-44.589,30.766
				c-22.728,6.268-31.308,44.547-8.869,57.086c22.439,12.54,65.338,12.54,81.837,0c16.499-12.54,15.179-54.115-13.86-57.086
				C382.609,112.072,416.513,74.932,397.128,84.278z"/>
			<path id="XMLID_7197_" style="fill:#D8D7DA;" d="M425.512,172.13c-16.507,12.542-59.4,12.542-81.844,0
				c-3.067-1.72-5.564-3.91-7.503-6.451c23.44,9.267,60.134,8.215,75.107-3.166c11.808-8.982,14.491-32.849,4.381-46.771
				C440.77,121.964,441.208,160.191,425.512,172.13z"/>
		</g>
	</g>
	<path id="XMLID_7419_" style="fill:#ADACB2;" d="M462.125,429.226H49.875c-16.164,0-31.535-7.006-42.138-19.207l-5.776-6.646
		c-4.465-5.137-0.815-13.143,5.991-13.143h496.095c6.806,0,10.455,8.006,5.991,13.143l-5.776,6.646
		C493.66,422.22,478.289,429.226,462.125,429.226z"/>
</g>
<g>
</g>
<g>
</g>
<g>
</g>
<g>
</g>
<g>
</g>
<g>
</g>
<g>
</g>
<g>
</g>
<g>
</g>
<g>
</g>
<g>
</g>
<g>
</g>
<g>
</g>
<g>
</g>
<g>
</g>
</svg>
