<?xml version="1.0" encoding="UTF-8" standalone="no"?>
<!DOCTYPE svg PUBLIC "-//W3C//DTD SVG 1.1//EN" "http://www.w3.org/Graphics/SVG/1.1/DTD/svg11.dtd">
<svg width="100%" height="100%" viewBox="0 0 512 512" version="1.1" xmlns="http://www.w3.org/2000/svg" xmlns:xlink="http://www.w3.org/1999/xlink" xml:space="preserve" xmlns:serif="http://www.serif.com/" style="fill-rule:evenodd;clip-rule:evenodd;stroke-linejoin:round;stroke-miterlimit:2;">
    <g id="Layer-1" serif:id="Layer 1" transform="matrix(0.341333,0,0,0.341333,-2.96966,70.2175)">
        <g transform="matrix(3.9738,0,0,3.9738,1508.68,721.425)">
            <path d="M0,-77.073C0.055,-78.175 -0.341,-79.25 -1.093,-80.054L-80.597,-165.06C-81.577,-166.106 -83.027,-166.571 -84.436,-166.26L-124.789,-157.557L-165.212,-174.006C-165.7,-174.204 -166.222,-174.305 -166.749,-174.305L-210.715,-174.305C-211.242,-174.305 -211.763,-174.204 -212.251,-174.006L-252.675,-157.557L-293.027,-166.26C-294.435,-166.571 -295.884,-166.106 -296.865,-165.06L-376.369,-80.054C-377.121,-79.25 -377.517,-78.175 -377.462,-77.073C-377.409,-75.971 -376.913,-74.939 -376.086,-74.209L-325.538,-29.677L-309.985,16.98C-309.571,18.222 -308.585,19.191 -307.334,19.58C-306.936,19.705 -306.525,19.767 -306.118,19.767C-305.248,19.767 -304.386,19.488 -303.672,18.951L-274.317,-3.064C-273.36,-3.783 -272.767,-4.885 -272.694,-6.077L-272.402,-10.851L-247.39,39.518C-247.115,40.073 -246.716,40.558 -246.225,40.935L-230.324,53.166C-230.266,53.211 -230.196,53.226 -230.136,53.267C-230.109,53.285 -230.085,53.308 -230.059,53.325C-230.002,53.363 -229.963,53.416 -229.904,53.45C-229.896,53.455 -229.886,53.456 -229.877,53.462C-229.713,53.556 -229.534,53.612 -229.359,53.682C-229.25,53.727 -229.146,53.781 -229.033,53.817C-228.983,53.832 -228.937,53.862 -228.886,53.875C-228.673,53.932 -228.45,53.941 -228.229,53.962L-228.229,64.614C-228.229,65.39 -228.008,66.149 -227.592,66.805L-212.931,89.839C-212.38,90.702 -211.525,91.328 -210.534,91.591L-190.102,97.001C-190.066,97.013 -190.03,97.018 -189.994,97.03L-189.741,97.096C-189.502,97.159 -189.259,97.171 -189.017,97.191C-188.932,97.196 -188.851,97.232 -188.766,97.232C-188.754,97.232 -188.743,97.228 -188.732,97.228C-188.721,97.228 -188.709,97.232 -188.698,97.232C-188.612,97.232 -188.532,97.196 -188.447,97.191C-188.204,97.171 -187.961,97.159 -187.723,97.096L-187.469,97.03C-187.434,97.018 -187.397,97.013 -187.361,97.001L-166.929,91.591C-165.938,91.328 -165.083,90.702 -164.533,89.839L-149.871,66.805C-149.456,66.149 -149.234,65.39 -149.234,64.614L-149.234,53.962C-149.013,53.941 -148.79,53.932 -148.577,53.874C-148.527,53.862 -148.481,53.832 -148.431,53.817C-148.317,53.781 -148.214,53.727 -148.104,53.682C-147.93,53.612 -147.75,53.556 -147.586,53.462C-147.578,53.456 -147.568,53.455 -147.559,53.45C-147.5,53.416 -147.461,53.363 -147.405,53.325C-147.378,53.308 -147.354,53.285 -147.327,53.267C-147.268,53.226 -147.197,53.211 -147.14,53.166L-131.239,40.935C-130.748,40.558 -130.348,40.073 -130.073,39.518L-105.061,-10.849L-104.769,-6.077C-104.696,-4.885 -104.103,-3.783 -103.146,-3.064L-73.79,18.951C-73.076,19.488 -72.215,19.767 -71.344,19.767C-70.937,19.767 -70.526,19.705 -70.128,19.58C-68.877,19.191 -67.891,18.222 -67.477,16.98L-51.924,-29.677L-1.376,-74.209C-0.549,-74.939 -0.053,-75.971 0,-77.073" style="fill:rgb(201,151,0);fill-rule:nonzero;"/>
        </g>
        <g transform="matrix(3.02779,-2.57363,-2.57363,-3.02779,518.046,424.067)">
            <path d="M2.304,12.079L26.384,12.079L30.286,-9.298L10.878,-8.051L2.304,12.079Z" style="fill:rgb(26,11,7);fill-rule:nonzero;"/>
        </g>
        <g transform="matrix(3.9738,0,0,3.9738,229.038,610.009)">
            <path d="M0,-3.976L43.688,-47.703L46.479,1.704L45.256,21.711L15.901,43.727L0,-3.976Z" style="fill:rgb(189,163,66);fill-rule:nonzero;"/>
        </g>
        <g transform="matrix(3.9738,0,0,3.9738,24.8972,256.405)">
            <path d="M0,39.752L79.504,-45.256L121.09,-36.286L93.57,15.901L95.059,41.281L51.372,85.008L0,39.752Z" style="fill:rgb(247,219,109);fill-rule:nonzero;"/>
        </g>
        <g transform="matrix(0,3.9738,3.9738,0,670.061,208.948)">
            <path d="M-41.264,22.306L-22.306,22.306L-24.344,-41.264L-41.264,0.324L-41.264,22.306Z" style="fill:rgb(248,225,149);fill-rule:nonzero;"/>
        </g>
        <g transform="matrix(3.9738,0,0,3.9738,396.726,112.211)">
            <path d="M0,52.187L91.09,2.039L27.521,0L0,52.187Z" style="fill:rgb(221,197,94);fill-rule:nonzero;"/>
        </g>
        <g transform="matrix(3.35083,2.13613,2.13613,-3.35083,388.194,211.539)">
            <path d="M16.427,-21.774L45.438,-21.774L52.526,1.238L66.28,69.478L16.427,-21.774Z" style="fill:rgb(248,225,149);fill-rule:nonzero;"/>
        </g>
        <g transform="matrix(3.9738,0,0,3.9738,493.936,554.806)">
            <path d="M0,-43.596L-20.182,15.595L-24.463,-59.191L0,-43.596Z" style="fill:rgb(221,197,94);fill-rule:nonzero;"/>
        </g>
        <g transform="matrix(2.34761,3.20622,3.20622,-2.34761,699.93,486.151)">
            <path d="M-32.565,3.18L-4.615,3.18L-16.025,-77.529L-32.403,-16.267L-32.565,3.18Z" style="fill:rgb(240,216,110);fill-rule:nonzero;"/>
        </g>
        <g transform="matrix(3.9738,0,0,3.9738,493.936,616.778)">
            <path d="M0,-59.191L19.57,-49.406L-20.182,0L0,-59.191Z" style="fill:rgb(240,215,112);fill-rule:nonzero;"/>
        </g>
        <g transform="matrix(3.9738,0,0,3.9738,758.699,467.229)">
            <path d="M0,-87.301L0,0L-14.95,-0.841L-31.462,-23.392L-48.28,-37.153L0,-87.301Z" style="fill:rgb(189,163,66);fill-rule:nonzero;"/>
        </g>
        <g transform="matrix(3.9738,0,0,3.9738,413.738,662.256)">
            <path d="M0,-11.444L57.895,0L57.895,-11.416L0,-11.444Z" style="fill:rgb(216,191,86);fill-rule:nonzero;"/>
        </g>
        <g transform="matrix(3.9738,0,0,3.9738,758.699,613.55)">
            <path d="M0,-36.821L0,-13.982L-27.283,0.841L-86.809,0.813L-14.95,-37.662L0,-36.821Z" style="fill:rgb(248,225,149);fill-rule:nonzero;"/>
        </g>
        <g transform="matrix(-0.617243,3.92557,3.92557,0.617243,615.68,898.432)">
            <path d="M-59.811,-2.241L5.812,-2.241L-3.801,-19.849L-62.123,-61.211L-59.811,-2.241Z" style="fill:rgb(240,215,112);fill-rule:nonzero;"/>
        </g>
        <g transform="matrix(3.9738,0,0,3.9738,603.297,662.258)">
            <path d="M0,64.826L35.471,37.102L39.106,32.21L23.239,23.24L10.193,0L0,64.826Z" style="fill:rgb(41,24,14);fill-rule:nonzero;"/>
        </g>
        <g transform="matrix(3.9738,0,0,3.9738,758.699,919.863)">
            <path d="M0,-32.616L0,-14.678L-39.106,0L0,-32.616Z" style="fill:rgb(8,2,0);fill-rule:nonzero;"/>
        </g>
        <g transform="matrix(3.9738,0,0,3.9738,617.945,1038.77)">
            <path d="M0,-31.304L0,-15.244L14.661,7.792L35.454,13.296L35.42,-44.6L0,-31.304Z" style="fill:rgb(188,119,151);fill-rule:nonzero;"/>
        </g>
        <g transform="matrix(-3.02779,-2.57363,-2.57363,3.02779,907.832,315.974)">
            <path d="M-32.861,-6.269L-8.781,-6.269L-4.879,15.108L-24.287,13.861L-32.861,-6.269Z" style="fill:rgb(26,11,7);fill-rule:nonzero;"/>
        </g>
        <g transform="matrix(3.9738,0,0,3.9738,1288.36,610.009)">
            <path d="M0,-3.976L-43.688,-47.703L-46.479,1.704L-45.256,21.711L-15.901,43.727L0,-3.976Z" style="fill:rgb(189,163,66);fill-rule:nonzero;"/>
        </g>
        <g transform="matrix(3.9738,0,0,3.9738,1492.5,256.405)">
            <path d="M0,39.752L-79.504,-45.256L-121.091,-36.286L-93.57,15.901L-95.06,41.281L-51.372,85.008L0,39.752Z" style="fill:rgb(247,219,109);fill-rule:nonzero;"/>
        </g>
        <g transform="matrix(0,3.9738,3.9738,0,922.672,-43.6628)">
            <path d="M22.306,-41.264L41.264,-41.264L39.225,22.306L22.306,-19.282L22.306,-41.264Z" style="fill:rgb(248,225,149);fill-rule:nonzero;"/>
        </g>
        <g transform="matrix(3.9738,0,0,3.9738,1120.67,112.211)">
            <path d="M0,52.187L-91.09,2.039L-27.521,0L0,52.187Z" style="fill:rgb(221,197,94);fill-rule:nonzero;"/>
        </g>
        <g transform="matrix(-3.35083,2.13613,2.13613,3.35083,750.166,290.338)">
            <path d="M-74.663,56.327L-45.652,56.327L-38.564,33.315L-24.81,-34.925L-74.663,56.327Z" style="fill:rgb(248,225,149);fill-rule:nonzero;"/>
        </g>
        <g transform="matrix(3.9738,0,0,3.9738,1023.46,554.806)">
            <path d="M0,-43.596L20.182,15.595L24.463,-59.191L0,-43.596Z" style="fill:rgb(221,197,94);fill-rule:nonzero;"/>
        </g>
        <g transform="matrix(-2.34771,3.20615,3.20615,2.34771,1104.3,504.909)">
            <path d="M6.27,-64.206L34.22,-64.206L22.808,16.503L6.432,-44.759L6.27,-64.206Z" style="fill:rgb(240,216,110);fill-rule:nonzero;"/>
        </g>
        <g transform="matrix(3.9738,0,0,3.9738,1023.46,616.778)">
            <path d="M0,-59.191L-19.57,-49.406L20.182,0L0,-59.191Z" style="fill:rgb(240,215,112);fill-rule:nonzero;"/>
        </g>
        <g transform="matrix(3.9738,0,0,3.9738,758.699,467.229)">
            <path d="M0,-87.301L0,0L14.949,-0.841L31.462,-23.392L48.28,-37.153L0,-87.301Z" style="fill:rgb(189,163,66);fill-rule:nonzero;"/>
        </g>
        <g transform="matrix(3.9738,0,0,3.9738,1103.66,662.256)">
            <path d="M0,-11.444L-57.895,0L-57.895,-11.416L0,-11.444Z" style="fill:rgb(216,191,86);fill-rule:nonzero;"/>
        </g>
        <g transform="matrix(3.9738,0,0,3.9738,758.699,613.55)">
            <path d="M0,-36.821L0,-13.982L27.283,0.841L86.809,0.813L14.949,-37.662L0,-36.821Z" style="fill:rgb(248,225,149);fill-rule:nonzero;"/>
        </g>
        <g transform="matrix(0.617243,3.92557,3.92557,-0.617243,1075.54,638.212)">
            <path d="M-1.916,-51.141L63.707,-51.141L54.094,-33.534L-4.228,7.829L-1.916,-51.141Z" style="fill:rgb(240,215,112);fill-rule:nonzero;"/>
        </g>
        <g transform="matrix(3.9738,0,0,3.9738,914.1,662.258)">
            <path d="M0,64.826L-35.471,37.102L-39.106,32.21L-23.24,23.24L-10.193,0L0,64.826Z" style="fill:rgb(41,24,14);fill-rule:nonzero;"/>
        </g>
        <g transform="matrix(3.9738,0,0,3.9738,867.115,731.345)">
            <path d="M0,-28.802L-27.283,-43.625L-54.565,-28.802L-56.196,-28.802L-56.196,-17.386L-43.15,5.854L-27.283,14.823L-11.416,5.854L1.631,-17.386L1.631,-28.802L0,-28.802Z" style="fill:rgb(8,2,0);fill-rule:nonzero;"/>
        </g>
        <g transform="matrix(3.9738,0,0,3.9738,758.699,919.863)">
            <path d="M0,-32.616L0,-14.678L39.106,0L0,-32.616Z" style="fill:rgb(8,2,0);fill-rule:nonzero;"/>
        </g>
        <g transform="matrix(3.9738,0,0,3.9738,899.452,1038.77)">
            <path d="M0,-31.304L0,-15.244L-14.661,7.792L-35.455,13.296L-35.42,-44.6L0,-31.304Z" style="fill:rgb(188,119,151);fill-rule:nonzero;"/>
        </g>
        <g transform="matrix(3.9738,0,0,3.9738,613.232,755.414)">
            <path d="M0,25.483L-8.616,18.552L-23.497,-15.9L-11.749,21.202L-11.749,34.269L-2.5,41.383L0,25.483Z" style="fill:rgb(7,5,6);fill-rule:nonzero;"/>
        </g>
        <g transform="matrix(3.9738,0,0,3.9738,904.136,755.414)">
            <path d="M0,25.483L8.616,18.552L23.498,-15.9L11.749,21.202L11.749,34.269L2.5,41.383L0,25.483Z" style="fill:rgb(7,5,6);fill-rule:nonzero;"/>
        </g>
    </g>
</svg>
